<svg xmlns="http://www.w3.org/2000/svg" viewBox="0 0 100 100"><defs><style>.cls-1{fill:#686efe;}.cls-2{fill:#fff;}</style></defs><g id="图层_2" data-name="图层 2"><g id="图层_1-2" data-name="图层 1"><rect class="cls-1" width="100" height="100"/><path class="cls-2" d="M22.7,59.9H35.3a4.8,4.8,0,0,1,4.8,4.8V77.3a4.8,4.8,0,0,1-4.8,4.8H22.7a4.8,4.8,0,0,1-4.8-4.8V64.7A4.87,4.87,0,0,1,22.7,59.9Z"/><path class="cls-2" d="M50,12.4h0A37.56,37.56,0,0,1,87.6,50h0A37.56,37.56,0,0,1,50,87.6h0A37.56,37.56,0,0,1,12.4,50h0A37.56,37.56,0,0,1,50,12.4Z"/><path class="cls-1" d="M49.9,32.3,36.7,49.9A1.55,1.55,0,0,0,37,52a1.69,1.69,0,0,0,1,.3H48.5L47.3,66.7a1.56,1.56,0,0,0,1.5,1.6,1.61,1.61,0,0,0,1.3-.6L63.3,50.1A1.55,1.55,0,0,0,63,48a1.69,1.69,0,0,0-1-.3H51.6l1.2-14.4a1.65,1.65,0,0,0-1.5-1.7,1.75,1.75,0,0,0-1.4.7Z"/></g></g></svg>